<?xml version="1.0" standalone="no"?>
<!DOCTYPE svg PUBLIC "-//W3C//DTD SVG 20010904//EN"
 "http://www.w3.org/TR/2001/REC-SVG-20010904/DTD/svg10.dtd">
<svg version="1.0" xmlns="http://www.w3.org/2000/svg"
 width="512.000000pt" height="512.000000pt" viewBox="0 0 512.000000 512.000000"
 preserveAspectRatio="xMidYMid meet">
<metadata>
Created by potrace 1.11, written by Peter Selinger 2001-2013
</metadata>
<g transform="translate(0.000000,512.000000) scale(0.100000,-0.100000)"
fill="#000000" stroke="none">
<path d="M2266 5109 c7 -12 -20 -17 -38 -8 -10 6 -19 5 -23 -1 -5 -8 -12 -7
-23 2 -9 7 -13 8 -9 2 9 -16 -37 -36 -52 -21 -8 8 -11 8 -11 -1 0 -7 -6 -12
-12 -11 -36 4 -59 -2 -52 -13 6 -10 4 -10 -8 0 -10 8 -19 9 -22 3 -4 -5 -14
-10 -24 -10 -43 -1 -58 -4 -69 -14 -7 -5 -13 -6 -13 -2 0 4 -12 -1 -27 -10
-25 -17 -26 -17 -19 0 5 15 4 16 -9 5 -8 -7 -13 -15 -11 -19 5 -8 -48 -6 -62
3 -8 5 -10 1 -5 -10 5 -14 2 -16 -15 -12 -16 5 -22 2 -22 -10 0 -15 -2 -15
-10 -2 -8 13 -14 8 -12 -11 0 -3 -13 -4 -29 -3 -23 2 -29 -1 -25 -12 3 -9 1
-12 -5 -9 -5 4 -17 1 -26 -7 -9 -7 -14 -8 -10 -2 3 6 0 11 -8 11 -8 0 -12 -3
-10 -7 2 -3 -5 -11 -16 -18 -16 -10 -19 -9 -19 5 0 15 -2 16 -10 3 -5 -8 -17
-15 -27 -15 -10 -1 -17 -6 -16 -12 1 -6 -9 -14 -23 -17 -14 -4 -22 -11 -18
-17 4 -7 -3 -6 -17 1 -13 7 -21 9 -17 5 12 -13 -15 -34 -30 -23 -9 8 -11 7 -6
-6 5 -12 2 -15 -12 -9 -11 4 -15 3 -10 -5 8 -13 -37 -28 -53 -17 -7 3 -8 0 -5
-10 5 -11 2 -14 -12 -8 -11 4 -15 3 -11 -4 7 -12 -20 -26 -33 -18 -5 3 -17 -6
-28 -19 -15 -20 -22 -22 -31 -13 -7 7 -12 8 -11 2 2 -5 2 -17 1 -25 -1 -13 -2
-13 -11 0 -8 13 -10 13 -10 -2 0 -12 -5 -15 -17 -11 -12 5 -14 3 -8 -7 6 -10
4 -12 -8 -7 -9 3 -19 1 -23 -5 -5 -7 -2 -8 7 -3 12 8 12 6 0 -8 -7 -9 -17 -14
-22 -11 -5 3 -9 0 -9 -6 0 -6 -4 -9 -9 -5 -5 3 -16 -4 -24 -15 -7 -11 -17 -17
-22 -12 -4 4 -5 -1 -2 -11 6 -15 3 -17 -13 -12 -14 4 -20 2 -20 -9 0 -8 -5
-18 -12 -22 -7 -5 -8 -3 -3 6 6 9 4 11 -4 6 -7 -5 -10 -15 -6 -23 4 -13 3 -14
-9 -4 -12 10 -16 8 -21 -8 -4 -12 -12 -18 -21 -14 -9 3 -14 0 -12 -8 2 -8 -3
-13 -9 -12 -7 2 -13 -4 -13 -12 0 -8 -5 -15 -11 -15 -5 0 -7 5 -3 12 4 6 3 8
-4 4 -6 -3 -9 -16 -7 -27 4 -18 2 -19 -13 -8 -9 7 -14 10 -10 5 8 -10 -14 -36
-24 -29 -5 2 -8 0 -8 -4 0 -5 -7 -18 -16 -29 -8 -10 -12 -13 -8 -5 5 10 3 12
-5 7 -7 -5 -10 -14 -7 -22 3 -9 0 -11 -11 -7 -11 4 -14 2 -9 -5 4 -7 1 -12 -9
-12 -9 0 -13 -4 -10 -10 3 -5 -3 -10 -15 -10 -12 0 -19 -4 -15 -9 7 -12 -54
-83 -65 -76 -10 6 -22 -24 -15 -35 3 -5 -4 -7 -15 -5 -11 2 -18 0 -15 -5 3 -5
-3 -13 -12 -19 -10 -6 -14 -11 -8 -11 5 0 -1 -7 -13 -16 -15 -10 -21 -22 -17
-32 3 -9 3 -13 -1 -9 -4 4 -13 -1 -21 -11 -8 -9 -11 -11 -7 -3 5 10 3 12 -5 7
-9 -6 -9 -12 1 -24 7 -10 9 -14 4 -10 -11 9 -52 -34 -48 -50 2 -8 -1 -11 -7
-7 -6 3 -12 1 -12 -4 -1 -6 -2 -16 -3 -22 0 -6 -9 -16 -18 -23 -10 -7 -15 -16
-11 -20 4 -4 -4 -17 -18 -29 -14 -12 -24 -28 -22 -35 3 -8 -1 -10 -13 -5 -12
4 -15 3 -10 -6 4 -6 2 -18 -4 -26 -7 -8 -9 -15 -4 -15 5 0 -2 -7 -14 -16 -12
-8 -19 -20 -16 -26 4 -6 -1 -17 -11 -24 -11 -8 -16 -21 -12 -34 5 -18 3 -20
-11 -8 -9 7 -14 8 -9 3 4 -4 -3 -20 -15 -34 -17 -19 -18 -22 -4 -11 20 15 20
15 0 -20 -10 -19 -22 -36 -26 -38 -5 -2 -8 -12 -8 -23 0 -10 -5 -19 -11 -19
-8 0 -7 -6 2 -17 10 -11 10 -14 2 -9 -8 4 -13 2 -13 -4 0 -6 -5 -8 -12 -4 -7
4 -8 3 -4 -5 4 -6 1 -25 -8 -41 -8 -17 -10 -28 -5 -25 5 3 6 -1 3 -9 -3 -9
-10 -16 -15 -16 -5 0 -8 -3 -7 -7 1 -5 -2 -17 -8 -28 -6 -11 -9 -30 -8 -43 1
-13 -5 -26 -12 -29 -8 -3 -11 -10 -8 -15 4 -6 1 -14 -7 -18 -10 -7 -10 -11 1
-24 11 -14 10 -16 -6 -10 -10 4 -16 4 -12 -1 4 -4 2 -15 -5 -23 -10 -13 -9
-14 3 -7 13 8 13 6 2 -8 -8 -9 -11 -21 -7 -27 3 -5 1 -10 -5 -10 -6 0 -8 -5
-4 -11 3 -6 1 -14 -5 -18 -6 -4 -13 -27 -15 -52 -1 -24 -8 -55 -13 -69 -6 -14
-9 -28 -6 -32 2 -4 -1 -17 -7 -28 -8 -15 -8 -20 2 -20 10 0 10 -2 -1 -9 -8 -5
-12 -18 -8 -30 3 -12 1 -18 -4 -15 -5 3 -7 -5 -5 -18 2 -13 -1 -31 -6 -42 -7
-14 -7 -16 2 -11 9 6 9 2 1 -14 -7 -12 -9 -26 -6 -31 3 -5 2 -11 -3 -14 -13
-8 -6 -61 8 -58 10 2 10 -1 -1 -14 -17 -20 -19 -56 -4 -66 7 -5 7 -8 0 -8 -6
0 -12 -14 -13 -31 -2 -21 1 -28 9 -23 9 5 9 3 3 -7 -13 -20 -13 -162 0 -171 8
-5 7 -8 -1 -8 -15 0 -10 -29 8 -42 11 -8 11 -9 -3 -4 -15 4 -16 1 -8 -19 6
-17 6 -25 -1 -25 -6 0 -7 -5 -4 -10 4 -6 11 -8 16 -5 5 3 6 -1 3 -9 -3 -9 -11
-13 -18 -9 -7 4 -7 1 1 -9 7 -8 10 -18 6 -21 -3 -4 -1 -7 7 -7 9 0 9 -4 2 -12
-5 -7 -6 -22 -2 -33 4 -11 5 -26 2 -34 -3 -8 -1 -12 5 -8 6 4 14 0 17 -9 4
-11 2 -15 -8 -11 -10 4 -13 1 -9 -9 3 -7 10 -14 17 -14 6 0 4 -5 -4 -10 -9 -6
-10 -10 -3 -10 6 0 11 -12 11 -27 -1 -49 2 -64 11 -59 5 3 9 -4 9 -17 -1 -43
6 -77 16 -77 5 0 6 -3 3 -7 -4 -3 -2 -12 4 -20 9 -10 8 -13 0 -13 -7 0 -9 -5
-6 -10 4 -6 12 -7 18 -3 7 4 6 0 -2 -10 -7 -10 -9 -17 -3 -17 6 0 9 -12 7 -26
-1 -15 3 -28 12 -31 8 -3 13 -14 10 -24 -3 -12 0 -19 9 -19 8 0 14 -5 14 -11
0 -5 -4 -7 -10 -4 -5 3 -10 1 -10 -4 0 -6 5 -11 10 -11 6 0 10 -9 10 -20 0
-11 6 -20 13 -20 9 0 9 -2 -1 -9 -11 -7 -10 -9 3 -15 9 -3 13 -10 10 -16 -3
-5 -1 -10 6 -10 8 0 8 -5 -2 -17 -7 -10 -9 -15 -5 -11 12 10 35 -22 36 -49 0
-13 5 -23 11 -23 8 0 7 -5 -1 -15 -11 -13 -10 -14 5 -9 13 5 16 4 11 -4 -4 -7
-2 -12 6 -12 9 0 9 -3 -2 -10 -8 -5 -10 -10 -4 -10 14 0 36 -49 28 -62 -4 -6
-2 -8 3 -5 6 4 16 -6 22 -23 5 -17 16 -30 23 -30 9 0 9 -3 -2 -10 -13 -8 -12
-10 3 -10 10 0 15 -5 12 -10 -3 -5 -1 -10 5 -10 7 0 10 -6 7 -13 -5 -15 36
-71 45 -61 3 2 4 -6 3 -20 -2 -19 1 -23 13 -19 11 5 14 2 9 -10 -4 -12 -1 -17
10 -17 9 0 13 -3 10 -6 -9 -10 12 -46 23 -39 6 3 7 -1 4 -9 -3 -9 -1 -16 5
-16 6 0 11 -7 11 -15 0 -9 7 -18 16 -22 8 -3 13 -12 9 -20 -4 -11 -1 -13 10
-9 9 3 13 2 10 -4 -3 -6 1 -13 9 -16 9 -3 14 -10 11 -14 -3 -5 4 -15 15 -23
11 -7 17 -17 13 -20 -3 -4 -1 -7 6 -7 7 0 9 -5 5 -12 -4 -6 -3 -8 3 -5 6 4 20
-9 32 -28 11 -19 28 -35 37 -35 14 0 14 -3 4 -15 -11 -13 -10 -14 4 -9 11 4
16 1 16 -12 0 -16 2 -17 10 -4 8 13 10 12 10 -2 0 -10 5 -18 11 -18 5 0 7 -5
4 -10 -3 -6 1 -10 9 -10 10 0 16 -9 16 -22 0 -12 3 -19 6 -15 4 3 13 -1 21 -9
8 -8 19 -11 25 -8 7 4 8 2 4 -5 -8 -12 18 -44 28 -34 3 4 6 -1 6 -10 0 -9 13
-23 29 -31 16 -9 31 -22 34 -31 4 -8 17 -15 29 -15 19 0 20 -2 8 -10 -13 -8
-12 -10 3 -10 10 0 20 -7 23 -15 4 -8 10 -12 15 -9 5 3 9 -2 9 -11 0 -11 5
-15 15 -11 13 5 19 -5 16 -26 0 -4 6 -5 14 -2 10 4 15 0 15 -11 0 -9 4 -14 9
-10 5 3 15 -1 23 -8 7 -7 18 -15 23 -18 6 -2 9 -8 7 -13 -2 -5 6 -6 18 -3 11
3 18 2 15 -3 -3 -4 2 -11 11 -14 9 -3 12 -11 8 -18 -6 -10 -4 -10 8 0 11 9 18
10 23 2 3 -5 3 -10 -1 -10 -4 0 1 -6 11 -14 11 -8 25 -12 32 -9 7 3 13 -2 13
-11 0 -10 5 -13 17 -9 12 5 14 3 8 -8 -7 -11 -5 -11 10 1 11 9 16 10 11 3 -4
-8 -2 -13 4 -13 6 0 9 -4 6 -8 -2 -4 4 -9 15 -9 26 -2 51 -22 43 -35 -4 -6 4
-5 16 2 15 8 20 8 16 1 -4 -6 0 -11 9 -11 10 0 13 -5 9 -12 -4 -6 -3 -8 3 -5
6 4 16 0 23 -8 10 -12 16 -13 28 -3 13 11 15 10 9 -4 -4 -12 -2 -15 9 -11 7 3
14 0 14 -7 0 -9 4 -9 18 1 9 7 14 9 10 5 -13 -15 13 -38 27 -26 10 8 15 8 21
-1 5 -8 3 -10 -7 -5 -8 4 -5 0 6 -9 11 -9 28 -14 38 -11 10 2 17 -2 17 -11 0
-9 6 -13 15 -9 8 3 21 -2 30 -10 8 -9 15 -11 15 -5 0 6 9 3 20 -6 22 -19 65
-29 55 -12 -4 6 2 5 14 -3 12 -7 21 -17 21 -22 0 -4 11 -6 25 -4 14 3 25 1 25
-4 0 -5 10 -6 21 -3 15 5 19 4 14 -5 -4 -7 -1 -11 6 -9 34 4 70 -2 64 -11 -3
-6 -2 -10 4 -10 5 0 12 6 14 13 4 9 6 9 6 0 1 -7 12 -13 26 -13 14 0 25 -6 25
-12 0 -9 4 -8 10 2 8 12 10 12 10 -5 0 -13 3 -16 8 -8 5 7 13 9 21 3 8 -4 21
-6 29 -2 11 4 13 2 7 -9 -8 -12 -6 -12 8 0 14 11 17 11 17 0 0 -12 2 -12 9 0
6 9 10 10 13 1 2 -6 26 -12 56 -13 28 0 52 -5 52 -10 0 -4 6 -5 12 0 18 11 39
13 33 3 -3 -4 2 -11 11 -14 8 -3 12 -2 9 3 -3 5 -1 12 5 16 5 3 10 -2 10 -12
0 -10 4 -14 8 -8 8 12 53 15 46 3 -8 -13 10 -9 25 4 8 7 11 8 8 3 -7 -13 212
-14 232 -1 9 6 12 5 8 -1 -4 -6 9 -10 33 -9 22 0 40 4 40 8 0 5 5 8 11 8 5 0
7 -5 4 -10 -3 -6 -1 -10 4 -10 6 0 11 5 11 11 0 5 4 7 10 4 20 -12 50 -14 56
-3 4 7 2 8 -4 4 -7 -4 -12 -2 -12 3 0 14 17 14 25 1 5 -8 11 -8 20 0 10 8 14
7 18 -2 4 -9 6 -9 6 -1 1 7 11 10 27 7 19 -3 24 -1 18 8 -6 10 -3 9 9 -1 11
-8 17 -9 17 -3 0 6 7 9 15 6 9 -4 15 0 15 7 0 11 3 11 10 -1 8 -12 10 -12 10
-1 0 11 3 11 17 0 13 -11 15 -11 9 -1 -6 11 -1 13 25 11 26 -3 33 0 31 11 -3
12 -1 12 9 3 12 -12 42 -6 34 7 -3 5 3 6 14 3 10 -3 22 0 26 7 5 8 10 8 21 -1
11 -9 15 -8 20 4 3 9 12 13 20 10 8 -3 14 1 14 8 0 11 3 11 10 -1 9 -13 12
-13 23 2 9 11 18 14 27 8 16 -10 43 7 34 21 -3 5 2 6 11 2 10 -3 21 0 26 8 7
12 9 12 9 0 0 -10 3 -11 14 -2 7 6 25 12 39 13 14 1 23 6 21 10 -3 4 1 8 8 9
31 2 53 9 56 18 2 5 10 7 18 4 8 -3 14 0 14 6 0 6 7 8 17 4 11 -4 14 -3 9 5
-4 7 -1 12 9 12 9 0 14 4 10 9 -3 5 0 13 6 17 7 4 9 3 5 -4 -3 -6 -2 -13 4
-17 5 -3 10 -1 10 4 0 6 3 10 8 10 20 -3 33 2 27 11 -4 6 7 13 24 16 16 4 32
13 35 21 5 12 9 13 21 3 10 -8 15 -9 15 -1 0 6 11 13 25 17 14 3 22 10 19 15
-3 5 1 9 10 9 8 0 17 6 19 13 4 9 6 9 6 -1 1 -10 4 -10 15 0 8 7 11 17 9 22
-3 5 0 7 8 4 7 -2 20 3 29 12 8 9 11 10 6 3 -14 -21 -1 -15 28 12 15 14 33 22
39 19 7 -4 9 -4 5 1 -10 11 34 44 51 37 10 -4 13 -1 8 12 -4 9 -3 15 2 11 5
-3 13 0 17 6 4 8 9 7 15 -2 6 -10 9 -8 9 8 0 17 4 21 17 16 11 -4 14 -3 9 5
-5 8 0 12 13 12 12 0 20 3 18 8 -1 4 1 8 6 10 15 5 44 37 40 45 -3 4 -1 7 4 6
24 -4 35 2 29 17 -6 15 -4 15 11 3 9 -8 14 -9 11 -4 -7 12 55 72 69 68 6 -2
14 4 17 15 4 10 17 25 31 32 13 7 22 16 20 20 -3 5 2 10 10 14 8 3 15 13 15
21 0 9 4 14 9 10 5 -3 12 4 16 15 3 11 11 20 16 20 6 0 7 6 3 13 -5 7 0 6 11
-3 11 -9 16 -10 11 -2 -4 6 -2 12 3 12 6 0 11 7 11 15 0 9 7 18 15 21 8 4 12
11 8 17 -4 6 0 8 10 4 11 -4 14 -2 11 7 -3 8 7 23 21 34 16 13 24 26 19 33 -5
8 -3 9 6 4 10 -6 12 -4 6 10 -6 16 -4 16 11 4 11 -9 14 -10 9 -1 -5 8 -1 12
11 12 15 0 16 2 3 10 -13 8 -8 14 11 12 3 0 11 9 19 21 11 19 11 21 -1 12 -8
-5 -7 -2 4 7 10 10 15 23 11 29 -4 7 -3 9 4 5 11 -6 38 31 34 47 -1 4 5 7 14
7 10 0 14 6 11 14 -3 8 1 17 10 20 9 4 13 13 9 22 -3 9 -2 12 5 9 6 -4 13 2
16 14 3 12 9 21 14 21 5 0 9 9 9 20 0 12 7 20 18 20 12 0 13 3 5 8 -9 6 -8 11
6 22 11 7 17 19 14 27 -3 7 0 13 7 13 6 0 8 4 5 10 -3 5 -1 10 5 10 6 0 9 4 6
9 -6 10 18 34 26 26 3 -3 4 5 3 19 -2 15 3 27 13 31 14 5 14 7 2 15 -13 9 -13
10 0 11 8 1 19 1 23 0 5 -1 6 3 2 9 -3 6 -11 8 -16 4 -15 -9 13 38 31 53 13
11 13 12 0 13 -12 0 -12 2 -2 9 8 4 14 12 15 17 1 5 5 8 8 7 3 -1 5 9 3 22 -1
14 1 25 6 25 4 0 11 7 14 16 4 10 2 13 -7 8 -8 -6 -8 -3 1 9 8 9 11 21 7 27
-4 6 -1 9 7 8 8 -2 13 6 12 19 -1 13 2 23 7 23 5 0 5 8 2 17 -5 12 -2 15 10
10 14 -5 15 -2 7 19 -7 17 -7 23 0 19 9 -5 14 16 13 53 -1 6 3 12 9 12 5 0 7
4 3 9 -3 5 0 13 6 17 8 4 7 9 -2 15 -10 6 -11 9 -1 9 7 0 12 13 12 31 0 17 4
28 10 24 6 -3 10 1 10 10 0 10 -5 13 -12 9 -10 -6 -10 -5 -1 8 7 8 10 18 6 21
-3 4 -2 7 4 7 6 0 9 9 5 22 -3 13 -1 19 6 15 11 -8 11 11 -1 31 -5 8 -2 12 9
12 13 0 14 3 4 15 -9 11 -9 15 -1 15 7 0 9 4 6 10 -3 5 -1 19 6 31 8 15 8 19
0 15 -14 -9 -14 7 0 21 8 8 8 13 0 17 -7 5 -5 16 7 34 11 17 12 23 3 18 -10
-7 -11 -3 -5 15 12 38 12 429 -1 429 -6 0 -7 3 0 8 13 9 19 35 6 28 -10 -7 -6
57 5 76 5 9 2 9 -10 -1 -15 -12 -17 -12 -14 0 2 8 8 17 13 21 6 5 5 8 -3 8 -9
0 -11 7 -7 19 3 11 1 22 -5 26 -8 5 -8 10 0 20 8 9 6 17 -5 29 -15 15 -15 16
2 17 15 0 15 2 2 7 -9 5 -15 19 -14 40 0 20 -3 31 -10 28 -6 -2 -11 7 -11 19
0 14 4 21 11 18 5 -4 1 4 -10 17 l-20 23 20 -6 c17 -6 18 -5 4 5 -9 7 -14 19
-11 27 3 9 0 11 -9 6 -11 -6 -11 -5 -2 5 9 10 8 16 -3 28 -13 12 -13 16 -2 23
11 7 11 9 0 9 -8 0 -12 6 -9 13 2 6 -3 18 -12 25 -9 8 -10 11 -3 7 6 -3 12 -2
12 3 0 6 -7 13 -16 16 -13 5 -14 9 -5 20 9 11 9 16 0 22 -8 5 -9 3 -4 -6 5 -8
4 -11 -3 -7 -5 4 -8 16 -5 27 3 12 0 20 -6 20 -7 0 -9 5 -6 10 3 6 2 10 -4 10
-6 0 -8 7 -5 15 4 9 0 15 -7 15 -11 0 -11 3 1 10 10 6 11 10 3 10 -7 0 -13 7
-13 16 0 8 -5 12 -11 8 -7 -4 -7 1 1 16 11 20 10 22 -3 17 -11 -4 -14 -1 -11
7 3 7 -2 19 -10 26 -9 7 -13 17 -10 22 4 6 0 14 -7 19 -11 7 -11 9 -1 9 10 0
10 3 0 14 -7 8 -17 11 -23 8 -5 -3 -4 2 4 11 12 15 9 21 -11 18 -4 0 -4 7 -1
16 4 11 3 14 -6 9 -6 -4 -11 -4 -10 1 4 25 -2 43 -13 37 -8 -5 -9 -2 -5 9 3 9
2 19 -4 22 -5 4 -7 11 -4 16 4 5 1 9 -5 9 -6 0 -8 5 -5 10 3 6 -1 10 -10 10
-9 0 -14 4 -10 9 3 5 -1 15 -8 23 -8 7 -12 19 -9 27 3 8 0 11 -6 7 -6 -3 -13
-2 -17 4 -3 5 0 10 7 10 8 1 6 6 -6 15 -11 8 -16 15 -11 15 5 0 -1 7 -13 16
-12 8 -22 24 -22 35 0 11 -4 17 -10 14 -5 -3 -10 1 -10 9 0 8 -7 22 -16 30 -8
9 -12 22 -8 28 4 7 4 10 -1 6 -8 -8 -35 15 -35 30 0 5 -7 15 -15 22 -8 7 -12
17 -8 24 3 6 3 8 -1 4 -10 -8 -36 14 -29 25 2 4 -3 10 -11 13 -9 3 -16 10 -16
16 0 15 -47 57 -56 50 -4 -4 -4 -1 0 6 5 8 -13 32 -48 67 -31 30 -56 60 -56
67 0 9 -3 9 -10 -2 -8 -13 -10 -12 -10 4 0 12 -5 16 -15 12 -8 -3 -14 -2 -14
2 4 24 -3 34 -18 28 -10 -4 -14 -4 -10 0 9 9 -13 35 -24 28 -5 -3 -6 3 -2 12
4 12 3 15 -5 10 -7 -4 -12 -1 -12 9 0 9 -4 14 -9 11 -5 -3 -12 1 -15 10 -3 9
-13 14 -20 11 -10 -4 -13 0 -11 14 2 11 0 17 -4 15 -4 -3 -18 4 -29 15 -12 11
-22 17 -22 14 0 -3 -6 0 -14 7 -8 7 -12 16 -9 21 2 4 -5 7 -17 7 -14 0 -19 4
-14 13 6 8 3 8 -9 -1 -14 -12 -16 -11 -12 6 3 16 -1 20 -15 17 -13 -3 -17 1
-13 11 3 9 0 14 -8 12 -8 -2 -13 3 -11 11 3 12 1 12 -14 0 -12 -9 -15 -9 -10
-1 4 7 1 12 -9 12 -9 0 -13 5 -10 10 3 6 -1 10 -9 10 -9 0 -16 5 -16 10 0 6
-3 9 -7 9 -20 -3 -34 2 -28 11 3 6 -3 10 -14 10 -12 0 -21 5 -21 11 0 5 -5 7
-12 3 -8 -5 -9 -2 -5 9 3 10 2 17 -2 17 -5 0 -12 -6 -14 -12 -4 -10 -6 -10 -6
0 -1 6 -8 12 -16 12 -8 0 -15 5 -15 11 0 6 -7 8 -16 5 -10 -4 -13 -2 -8 6 5 8
2 9 -10 5 -9 -4 -15 -3 -12 2 8 12 -22 23 -37 14 -7 -3 -9 -3 -5 2 13 14 -38
44 -80 47 -7 1 -11 7 -8 14 3 8 -4 11 -20 9 -15 -1 -24 3 -24 12 0 10 -6 12
-21 8 -14 -5 -19 -3 -15 3 3 6 2 13 -4 17 -5 3 -10 0 -10 -7 0 -10 -2 -10 -9
1 -5 8 -14 10 -21 6 -9 -6 -11 -4 -5 5 6 10 4 12 -8 7 -10 -4 -17 -2 -17 4 0
6 -7 9 -15 5 -8 -3 -15 -1 -15 5 0 6 -4 7 -10 4 -5 -3 -10 -1 -10 5 0 6 -4 9
-9 6 -5 -4 -11 -1 -13 6 -2 6 -12 12 -21 14 -9 1 -15 -2 -11 -7 3 -5 1 -9 -4
-9 -6 0 -13 7 -16 16 -3 8 -10 12 -16 9 -5 -3 -10 -1 -10 4 0 15 -30 14 -30
-1 0 -7 -5 -5 -11 5 -7 12 -17 16 -30 12 -13 -4 -21 -1 -25 10 -6 13 -8 14
-15 3 -6 -8 -9 -9 -9 -1 0 6 -9 9 -22 6 -19 -4 -20 -3 -8 6 8 6 10 11 5 11 -6
0 -17 -6 -24 -12 -12 -11 -13 -10 -7 6 7 20 7 20 -15 0 -12 -10 -19 -14 -16
-8 9 15 -19 39 -28 24 -10 -15 -23 -12 -28 8 -4 16 -5 16 -6 -1 -1 -16 -3 -17
-16 -3 -8 8 -24 13 -35 11 -11 -2 -20 0 -20 4 0 12 -30 9 -30 -3 0 -6 -5 -3
-11 6 -7 12 -19 16 -39 14 -17 -2 -30 1 -30 7 0 5 -7 4 -15 -3 -10 -9 -15 -9
-15 -1 0 6 -5 11 -11 11 -5 0 -7 -6 -3 -12 4 -7 -3 -4 -16 7 -13 11 -20 14
-16 8 4 -7 3 -13 -3 -13 -5 0 -12 6 -14 13 -4 9 -6 9 -6 -1 -1 -9 -6 -10 -19
-3 -10 6 -24 6 -32 1 -8 -5 -19 -6 -25 -2 -18 11 -249 10 -264 -2 -11 -8 -13
-8 -7 2 4 7 1 12 -9 12 -9 0 -13 -5 -9 -11 5 -8 1 -8 -14 0 -17 9 -23 8 -32
-6 -11 -17 -11 -17 -6 0 3 9 1 17 -4 17 -6 0 -10 -4 -10 -10 0 -5 -5 -10 -11
-10 -5 0 -8 3 -6 8 3 4 -6 7 -19 7 -13 0 -24 -6 -24 -13 0 -7 -5 -10 -10 -7
-6 4 -8 10 -6 14 3 3 -4 7 -14 7 -10 0 -17 -3 -14 -7z m1151 -151 c-3 -8 -6
-5 -6 6 -1 11 2 17 5 13 3 -3 4 -12 1 -19z"/>
<path d="M674 4298 l-19 -23 23 19 c21 18 27 26 19 26 -2 0 -12 -10 -23 -22z"/>
<path d="M4915 3560 c3 -5 8 -10 11 -10 2 0 4 5 4 10 0 6 -5 10 -11 10 -5 0
-7 -4 -4 -10z"/>
</g>
</svg>
